<?xml version="1.0" encoding="UTF-8" standalone="no"?> <!-- Created with Vectornator for iOS (http://vectornator.io/) --><!DOCTYPE svg PUBLIC "-//W3C//DTD SVG 1.1//EN" "http://www.w3.org/Graphics/SVG/1.1/DTD/svg11.dtd">
<svg xmlns:xlink="http://www.w3.org/1999/xlink" width="100%" viewBox="0 0 51 41" xmlns="http://www.w3.org/2000/svg" xml:space="preserve" height="100%" style="fill-rule:nonzero;clip-rule:evenodd;stroke-linecap:round;stroke-linejoin:round;" version="1.1" xmlns:vectornator="http://vectornator.io">
<metadata>
<vectornator:setting key="VNSnapToGuides" value="true"/>
<vectornator:setting value="true" key="WDRulersVisible"/>
<vectornator:setting key="WDGuidesVisible" value="true"/>
<vectornator:setting key="WDDynamicGuides" value="true"/>
<vectornator:setting key="VNDimensionsVisible" value="true"/>
<vectornator:setting key="WDOutlineMode" value="false"/>
<vectornator:setting value="false" key="WDDisplayWhiteBackground"/>
<vectornator:setting value="false" key="WDIsolateActiveLayer"/>
<vectornator:setting value="false" key="WDCMYKEnabledKey"/>
<vectornator:setting key="WDSnapToGrid" value="true"/>
<vectornator:setting value="Pixels" key="WDUnits"/>
<vectornator:setting value="true" key="WDSnapToPoints"/>
<vectornator:setting key="UndoHistoryDisabled" value="true"/>
<vectornator:setting key="WDSnapToEdges" value="true"/>
<vectornator:setting key="IsTimeLapseWatermarkDisabled" value="false"/>
</metadata>
<defs/>
<g id="レイヤー 1" vectornator:layerName="レイヤー 1">
<g opacity="0">
<path d="M75+39.4722C75+45.2852+70.2027+49.9982+64.2857+49.9982C58.3688+49.9982+53.5714+45.2852+53.5714+39.4722L64.2857+28.9463C70.2027+28.9463+75+33.6593+75+39.4722ZM69.6429+10.5259C69.6429+14.8863+66.0455+18.4204+61.6071+18.4204L53.5714+10.5259C53.5714+6.16556+57.1688+2.63148+61.6071+2.63148C66.0455+2.63148+69.6429+6.16556+69.6429+10.5259ZM0+39.4722C0+45.2852+4.79732+49.9982+10.7143+49.9982C16.6312+49.9982+21.4286+45.2852+21.4286+39.4722L10.7143+28.9463C4.79732+28.9463+0+33.6593+0+39.4722ZM5.35714+10.5259C5.35714+14.8863+8.95446+18.4204+13.3929+18.4204L21.4286+10.5259C21.4286+6.16556+17.8312+2.63148+13.3929+2.63148C8.95446+2.63148+5.35714+6.16556+5.35714+10.5259Z" opacity="1" fill="#544432"/>
<path opacity="1" fill="#544432" d="M11.775+2.792L5.49375+9.07598L0.225+37.3144L18.7125+46.4746L22.7679+42.1037L37.5+42.1037L37.5+0C26.6009+0+11.775+2.792+11.775+2.792ZM24.1071+26.3148L21.4286+26.3148L21.4286+28.9463C21.4286+30.3989+20.2286+31.5778+18.75+31.5778C17.2714+31.5778+16.0714+30.3989+16.0714+28.9463L16.0714+26.3148L13.3929+26.3148C11.9143+26.3148+10.7143+25.1359+10.7143+23.6833C10.7143+22.2308+11.9143+21.0519+13.3929+21.0519L16.0714+21.0519L16.0714+18.4204C16.0714+16.9678+17.2714+15.7889+18.75+15.7889C20.2286+15.7889+21.4286+16.9678+21.4286+18.4204L21.4286+21.0519L24.1071+21.0519C25.5857+21.0519+26.7857+22.2308+26.7857+23.6833C26.7857+25.1359+25.5857+26.3148+24.1071+26.3148ZM69.5062+9.07598L63.2223+2.792C63.225+2.792+48.3991+0+37.5+0L37.5+42.1037L52.2321+42.1037L56.2875+46.4746L74.775+37.3144L69.5062+9.07598ZM56.25+15.7889C57.7286+15.7889+58.9286+16.9678+58.9286+18.4204C58.9286+19.873+57.7286+21.0519+56.25+21.0519C54.7714+21.0519+53.5714+19.873+53.5714+18.4204C53.5714+16.9678+54.7714+15.7889+56.25+15.7889ZM50.8929+26.3148C49.4143+26.3148+48.2143+25.1359+48.2143+23.6833C48.2143+22.2308+49.4143+21.0519+50.8929+21.0519C52.3714+21.0519+53.5714+22.2308+53.5714+23.6833C53.5714+25.1359+52.3714+26.3148+50.8929+26.3148ZM56.25+31.5778C54.7714+31.5778+53.5714+30.3989+53.5714+28.9463C53.5714+27.4937+54.7714+26.3148+56.25+26.3148C57.7286+26.3148+58.9286+27.4937+58.9286+28.9463C58.9286+30.3989+57.7286+31.5778+56.25+31.5778ZM61.6071+26.3148C60.1286+26.3148+58.9286+25.1359+58.9286+23.6833C58.9286+22.2308+60.1286+21.0519+61.6071+21.0519C63.0857+21.0519+64.2857+22.2308+64.2857+23.6833C64.2857+25.1359+63.0857+26.3148+61.6071+26.3148Z"/>
</g>
<g opacity="0">
<path fill="#554433" d="M34.901+23.5149L27.5743+23.5149C27.3267+23.0693+26.9307+22.6733+26.4851+22.4257L26.4851+10.1485C26.4851+9.30693+25.8416+8.66337+25+8.66337C24.1584+8.66337+23.5148+9.30693+23.5148+10.1485L23.5148+22.4257C22.6238+22.9208+22.0297+23.9109+22.0297+25C22.0297+26.6337+23.3663+27.9703+25+27.9703C26.0891+27.9703+27.0792+27.3762+27.5743+26.4851L34.901+26.4851C35.7426+26.4851+36.3861+25.8416+36.3861+25C36.3861+24.1584+35.7426+23.5149+34.901+23.5149Z" opacity="1"/>
<path opacity="1" d="M50+25C50+11.2376+38.7624+4.54747e-13+25+4.54747e-13C11.2376+4.54747e-13+0+11.2376+0+25C0+38.7624+11.2376+50+25+50C38.7624+50+50+38.7624+50+25ZM25+47.0297C12.8713+47.0297+2.9703+37.1287+2.9703+25C2.9703+12.8713+12.8713+2.9703+25+2.9703C37.1287+2.9703+47.0297+12.8713+47.0297+25C47.0297+37.1287+37.1287+47.0297+25+47.0297Z" fill="#554433"/>
</g>
<path fill="#03a9f4" d="M51+4.8479C49.1259+5.67638+47.1102+6.22917+44.9839+6.49072C47.1456+5.20983+48.8086+3.1669+49.5891+0.753551C47.5663+1.9369+45.3253+2.80638+42.9413+3.26445C41.0374+1.24979+38.3219+0+35.3131+0C29.5336+0+24.8491+4.63441+24.8491+10.349C24.8491+11.1577+24.944+11.9451+25.1225+12.71C16.4277+12.2746+8.71602+8.1491+3.55695+1.88883C2.65036+3.41855+2.14041+5.20983+2.14041+7.10007C2.14041+10.6925+3.98333+13.8552+6.79377+15.7186C5.07833+15.6662+3.46346+15.1898+2.04975+14.4263C2.04975+14.4574+2.04975+14.5041+2.04975+14.5479C2.04975+19.5683+5.6577+23.7489+10.44+24.7004C9.56595+24.9393+8.64236+25.0722+7.69044+25.0722C7.01475+25.0722+6.35605+24.9959+5.71861+24.8813C7.05016+28.9842+10.9131+31.9828+15.49+32.0719C11.9089+34.8429+7.39863+36.5027+2.49454+36.5027C1.64745+36.5027+0.818765+36.4547+0+36.3557C4.63353+39.2837+10.1354+41+16.041+41C35.2848+41+45.8126+25.2277+45.8126+11.545C45.8126+11.0969+45.7984+10.6501+45.7772+10.209C47.8312+8.76128+49.6019+6.93465+51+4.8479" opacity="1"/>
</g>
</svg>
